<svg width="129" height="77" viewBox="0 0 129 77" fill="none" xmlns="http://www.w3.org/2000/svg">
<path d="M10.65 70.9328V61.4828H1.7V57.2828H10.65V47.8328H15V57.2828H23.95V61.4828H15V70.9328H10.65ZM37.5445 75.8828V72.5328C39.7445 70.3995 41.7279 68.4328 43.4945 66.6328C45.2945 64.8328 46.8112 63.1661 48.0445 61.6328C49.3112 60.0995 50.2779 58.6661 50.9445 57.3328C51.6112 55.9995 51.9445 54.7328 51.9445 53.5328C51.9445 51.8328 51.4945 50.4995 50.5945 49.5328C49.6945 48.5328 48.3945 48.0328 46.6945 48.0328C45.4612 48.0328 44.3279 48.3828 43.2945 49.0828C42.2945 49.7828 41.3612 50.6161 40.4945 51.5828L37.2945 48.3828C38.7612 46.8161 40.2612 45.6161 41.7945 44.7828C43.3612 43.9161 45.2445 43.4828 47.4445 43.4828C48.9779 43.4828 50.3612 43.7161 51.5945 44.1828C52.8279 44.6495 53.8779 45.3161 54.7445 46.1828C55.6112 47.0161 56.2779 48.0328 56.7445 49.2328C57.2445 50.4328 57.4945 51.7661 57.4945 53.2328C57.4945 54.6328 57.1779 56.0661 56.5445 57.5328C55.9445 58.9661 55.1112 60.4328 54.0445 61.9328C53.0112 63.3995 51.7945 64.9161 50.3945 66.4828C48.9945 68.0495 47.5112 69.6661 45.9445 71.3328C46.7779 71.2661 47.6779 71.1995 48.6445 71.1328C49.6112 71.0328 50.4779 70.9828 51.2445 70.9828H59.0445V75.8828H37.5445ZM73.3293 76.4828C70.7626 76.4828 68.596 76.0495 66.8293 75.1828C65.096 74.2828 63.646 73.2495 62.4793 72.0828L65.1293 68.3828C66.096 69.2828 67.1793 70.0828 68.3793 70.7828C69.5793 71.4495 70.9793 71.7828 72.5793 71.7828C74.3793 71.7828 75.846 71.2495 76.9793 70.1828C78.146 69.1161 78.7293 67.6161 78.7293 65.6828C78.7293 63.7828 78.196 62.3161 77.1293 61.2828C76.0626 60.2495 74.646 59.7328 72.8793 59.7328C71.846 59.7328 70.9793 59.8828 70.2793 60.1828C69.5793 60.4495 68.746 60.8995 67.7793 61.5328L65.0293 59.7828L65.9793 44.0828H82.9793V48.9328H70.9793L70.3293 56.6328C70.996 56.2995 71.646 56.0495 72.2793 55.8828C72.946 55.6828 73.696 55.5828 74.5293 55.5828C75.896 55.5828 77.1793 55.7828 78.3793 56.1828C79.6126 56.5828 80.6793 57.1995 81.5793 58.0328C82.4793 58.8328 83.196 59.8661 83.7293 61.1328C84.2626 62.3661 84.5293 63.8328 84.5293 65.5328C84.5293 67.2661 84.2126 68.8161 83.5793 70.1828C82.9793 71.5495 82.1626 72.6995 81.1293 73.6328C80.096 74.5661 78.896 75.2828 77.5293 75.7828C76.196 76.2495 74.796 76.4828 73.3293 76.4828ZM96.2141 63.2828C93.9141 63.2828 92.0307 62.3828 90.5641 60.5828C89.1307 58.7495 88.4141 56.1828 88.4141 52.8828C88.4141 49.5828 89.1307 47.0495 90.5641 45.2828C92.0307 43.4828 93.9141 42.5828 96.2141 42.5828C98.5141 42.5828 100.381 43.4828 101.814 45.2828C103.281 47.0495 104.014 49.5828 104.014 52.8828C104.014 56.1828 103.281 58.7495 101.814 60.5828C100.381 62.3828 98.5141 63.2828 96.2141 63.2828ZM96.2141 59.9328C97.2807 59.9328 98.1474 59.3828 98.8141 58.2828C99.5141 57.1495 99.8641 55.3495 99.8641 52.8828C99.8641 50.4161 99.5141 48.6495 98.8141 47.5828C98.1474 46.4828 97.2807 45.9328 96.2141 45.9328C95.1474 45.9328 94.2641 46.4828 93.5641 47.5828C92.8974 48.6495 92.5641 50.4161 92.5641 52.8828C92.5641 55.3495 92.8974 57.1495 93.5641 58.2828C94.2641 59.3828 95.1474 59.9328 96.2141 59.9328ZM97.2141 76.4828L115.064 42.5828H118.564L100.764 76.4828H97.2141ZM119.664 76.4828C117.364 76.4828 115.481 75.5828 114.014 73.7828C112.581 71.9495 111.864 69.3828 111.864 66.0828C111.864 62.7828 112.581 60.2495 114.014 58.4828C115.481 56.6828 117.364 55.7828 119.664 55.7828C121.964 55.7828 123.831 56.6828 125.264 58.4828C126.731 60.2495 127.464 62.7828 127.464 66.0828C127.464 69.3828 126.731 71.9495 125.264 73.7828C123.831 75.5828 121.964 76.4828 119.664 76.4828ZM119.664 73.1328C120.731 73.1328 121.597 72.5828 122.264 71.4828C122.964 70.3495 123.314 68.5495 123.314 66.0828C123.314 63.6161 122.964 61.8495 122.264 60.7828C121.597 59.6828 120.731 59.1328 119.664 59.1328C118.597 59.1328 117.714 59.6828 117.014 60.7828C116.347 61.8495 116.014 63.6161 116.014 66.0828C116.014 68.5495 116.347 70.3495 117.014 71.4828C117.714 72.5828 118.597 73.1328 119.664 73.1328Z" fill="white"/>
<path d="M25.4097 26V31.64H22.3197L21.9897 25.22V23.06H22.8897C23.1097 22.98 23.3297 22.81 23.5497 22.55C23.7897 22.29 24.0197 21.89 24.2397 21.35C24.4797 20.81 24.7197 20.12 24.9597 19.28C25.1997 18.44 25.4397 17.4 25.6797 16.16C25.8597 15.24 26.0097 14.4 26.1297 13.64C26.2697 12.88 26.3997 12.13 26.5197 11.39C26.6597 10.63 26.7897 9.86 26.9097 9.08C27.0497 8.28 27.1997 7.38 27.3597 6.38H38.1597V23.06H40.4697V25.22L40.1397 31.64H37.0497V26H25.4097ZM28.7997 16.64C28.2597 19.52 27.5597 21.66 26.6997 23.06H34.6797V9.32H30.0597C29.9397 10.02 29.8297 10.67 29.7297 11.27C29.6297 11.85 29.5297 12.42 29.4297 12.98C29.3497 13.54 29.2597 14.11 29.1597 14.69C29.0597 15.27 28.9397 15.92 28.7997 16.64ZM49.6201 26.36C48.7001 26.36 47.8201 26.19 46.9801 25.85C46.1401 25.51 45.3901 25.01 44.7301 24.35C44.0901 23.69 43.5801 22.88 43.2001 21.92C42.8201 20.96 42.6301 19.87 42.6301 18.65C42.6301 17.43 42.8201 16.34 43.2001 15.38C43.5801 14.42 44.0901 13.61 44.7301 12.95C45.3901 12.29 46.1401 11.79 46.9801 11.45C47.8201 11.09 48.7001 10.91 49.6201 10.91C50.5401 10.91 51.4201 11.09 52.2601 11.45C53.1201 11.79 53.8701 12.29 54.5101 12.95C55.1501 13.61 55.6601 14.42 56.0401 15.38C56.4401 16.34 56.6401 17.43 56.6401 18.65C56.6401 19.87 56.4401 20.96 56.0401 21.92C55.6601 22.88 55.1501 23.69 54.5101 24.35C53.8701 25.01 53.1201 25.51 52.2601 25.85C51.4201 26.19 50.5401 26.36 49.6201 26.36ZM49.6201 23.54C50.7001 23.54 51.5501 23.1 52.1701 22.22C52.7901 21.32 53.1001 20.13 53.1001 18.65C53.1001 17.15 52.7901 15.96 52.1701 15.08C51.5501 14.18 50.7001 13.73 49.6201 13.73C48.5401 13.73 47.6901 14.18 47.0701 15.08C46.4701 15.96 46.1701 17.15 46.1701 18.65C46.1701 20.13 46.4701 21.32 47.0701 22.22C47.6901 23.1 48.5401 23.54 49.6201 23.54ZM57.6112 26L62.2912 18.32L57.9112 11.27H61.6312L63.2812 14.06C63.5012 14.46 63.7212 14.88 63.9412 15.32C64.1812 15.74 64.4112 16.15 64.6312 16.55H64.7512C64.9312 16.15 65.1212 15.74 65.3212 15.32C65.5212 14.88 65.7112 14.46 65.8912 14.06L67.3012 11.27H70.8712L66.5212 18.71L71.2012 26H67.4812L65.6812 23.09C65.4412 22.65 65.1912 22.21 64.9312 21.77C64.6912 21.33 64.4412 20.9 64.1812 20.48H64.0612C63.8412 20.9 63.6212 21.33 63.4012 21.77C63.2012 22.19 62.9912 22.63 62.7712 23.09L61.2112 26H57.6112ZM79.1807 26.36C78.2607 26.36 77.3807 26.19 76.5407 25.85C75.7007 25.51 74.9507 25.01 74.2907 24.35C73.6507 23.69 73.1407 22.88 72.7607 21.92C72.3807 20.96 72.1907 19.87 72.1907 18.65C72.1907 17.43 72.3807 16.34 72.7607 15.38C73.1407 14.42 73.6507 13.61 74.2907 12.95C74.9507 12.29 75.7007 11.79 76.5407 11.45C77.3807 11.09 78.2607 10.91 79.1807 10.91C80.1007 10.91 80.9807 11.09 81.8207 11.45C82.6807 11.79 83.4307 12.29 84.0707 12.95C84.7107 13.61 85.2207 14.42 85.6007 15.38C86.0007 16.34 86.2007 17.43 86.2007 18.65C86.2007 19.87 86.0007 20.96 85.6007 21.92C85.2207 22.88 84.7107 23.69 84.0707 24.35C83.4307 25.01 82.6807 25.51 81.8207 25.85C80.9807 26.19 80.1007 26.36 79.1807 26.36ZM79.1807 23.54C80.2607 23.54 81.1107 23.1 81.7307 22.22C82.3507 21.32 82.6607 20.13 82.6607 18.65C82.6607 17.15 82.3507 15.96 81.7307 15.08C81.1107 14.18 80.2607 13.73 79.1807 13.73C78.1007 13.73 77.2507 14.18 76.6307 15.08C76.0307 15.96 75.7307 17.15 75.7307 18.65C75.7307 20.13 76.0307 21.32 76.6307 22.22C77.2507 23.1 78.1007 23.54 79.1807 23.54ZM91.2055 26V31.16H88.2055L87.8755 25.49V23.24H88.7155C88.8955 23.14 89.0655 22.99 89.2255 22.79C89.4055 22.59 89.5755 22.28 89.7355 21.86C89.8955 21.44 90.0455 20.88 90.1855 20.18C90.3255 19.48 90.4655 18.57 90.6055 17.45L91.3255 11.27H101.436V23.24H103.686V25.49L103.326 31.16H100.356V26H91.2055ZM93.6055 18.2C93.4655 19.36 93.2755 20.35 93.0355 21.17C92.8155 21.99 92.5355 22.68 92.1955 23.24H97.9855V14H94.0555L93.6055 18.2Z" fill="white"/>
</svg>
